<?xml version="1.0" encoding="UTF-8" standalone="no"?>
<svg
   xmlns:dc="http://purl.org/dc/elements/1.1/"
   xmlns:cc="http://creativecommons.org/ns#"
   xmlns:rdf="http://www.w3.org/1999/02/22-rdf-syntax-ns#"
   xmlns:svg="http://www.w3.org/2000/svg"
   xmlns="http://www.w3.org/2000/svg"
   viewBox="0 0 732 733.33331"
   height="733.33331"
   width="732"
   xml:space="preserve"
   id="svg2"
   version="1.1"><metadata
     id="metadata8"><rdf:RDF><cc:Work
         rdf:about=""><dc:format>image/svg+xml</dc:format><dc:type
           rdf:resource="http://purl.org/dc/dcmitype/StillImage" /></cc:Work></rdf:RDF></metadata><defs
     id="defs6" /><g
     transform="matrix(1.3333333,0,0,-1.3333333,0,733.33333)"
     id="g10"><g
       transform="scale(0.1)"
       id="g12"><path
         id="path14"
         style="fill:#306fb4;fill-opacity:1;fill-rule:nonzero;stroke:none"
         d="m 2586.51,4050.65 475.63,-4.78 c 115.91,-12.62 227.51,-36.01 348.71,-49.21 511.2,-57.61 595.09,-662.8 827.29,-989.79 31.79,-45 22.49,-118.76 40.62,-167.76 v -220.63 c 0.02,-1.2 -19.18,-85.8 -19.18,-87.6 v -915.59 c 0,-56.4 -65.85,-91.68 -102.82,-103.78 h -239.78 c -33,-0.02 -103.8,50.98 -103.62,88.18 v 306.54 c -8.45,3.91 -12.18,3.66 -24.18,3.66 -12,0 -127.11,-15 -232.71,-19.2 -9.6,0 -14.49,-9.6 -24.04,-9.6 l -571.22,-24 -796.82,16.8 -425.18,36.63 v -314.43 c 0.39,-28.2 -93.31,-80.89 -97.09,-84.5 H 1397 c -55.2,-0.1 -103.8,79.7 -103.8,116.9 v 917.99 c 0,12 -19.2,78 -19.2,90 v 174 c 0,55.2 90.99,288.7 111.99,321.11 178.2,274.2 315.03,824.27 759.02,858.47 87.6,6.6 195.54,41.4 287.94,51 57,5.99 134.06,4.74 153.56,9.59" /><g
         transform="scale(10)"
         id="g16"><text
           id="text20"
           style="font-variant:normal;font-weight:900;font-size:71.99975586px;font-family:HelveticaNeue;-inkscape-font-specification:HelveticaNeue-CondensedBlack;writing-mode:lr-tb;fill:#176fc1;fill-opacity:1;fill-rule:nonzero;stroke:none"
           transform="matrix(0.156433,0.987688,0.987688,-0.156433,82.2617,282.336)"><tspan
             id="tspan18"
             y="0"
             x="0">K</tspan></text>
<text
           id="text24"
           style="font-variant:normal;font-weight:900;font-size:71.99993896px;font-family:HelveticaNeue;-inkscape-font-specification:HelveticaNeue-CondensedBlack;writing-mode:lr-tb;fill:#176fc1;fill-opacity:1;fill-rule:nonzero;stroke:none"
           transform="matrix(0.406739,0.913545,0.913545,-0.406739,91.1078,329.035)"><tspan
             id="tspan22"
             y="0"
             x="0">R</tspan></text>
<text
           id="text28"
           style="font-variant:normal;font-weight:900;font-size:71.99987793px;font-family:HelveticaNeue;-inkscape-font-specification:HelveticaNeue-CondensedBlack;writing-mode:lr-tb;fill:#176fc1;fill-opacity:1;fill-rule:nonzero;stroke:none"
           transform="matrix(0.615662,0.78801,0.78801,-0.615662,111.838,372.914)"><tspan
             id="tspan26"
             y="0"
             x="0">A</tspan></text>
<text
           id="text32"
           style="font-variant:normal;font-weight:900;font-size:71.99989319px;font-family:HelveticaNeue;-inkscape-font-specification:HelveticaNeue-CondensedBlack;writing-mode:lr-tb;fill:#176fc1;fill-opacity:1;fill-rule:nonzero;stroke:none"
           transform="matrix(0.777147,0.629319,0.629319,-0.777147,141.572,409.282)"><tspan
             id="tspan30"
             y="0"
             x="0">F</tspan></text>
<text
           id="text36"
           style="font-variant:normal;font-weight:900;font-size:71.99962616px;font-family:HelveticaNeue;-inkscape-font-specification:HelveticaNeue-CondensedBlack;writing-mode:lr-tb;fill:#176fc1;fill-opacity:1;fill-rule:nonzero;stroke:none"
           transform="matrix(0.898794,0.438372,0.438372,-0.898794,174.424,434.798)"><tspan
             id="tspan34"
             y="0"
             x="0">T</tspan></text>
<text
           id="text40"
           style="font-variant:normal;font-weight:900;font-size:72.00011444px;font-family:HelveticaNeue;-inkscape-font-specification:HelveticaNeue-CondensedBlack;writing-mode:lr-tb;fill:#176fc1;fill-opacity:1;fill-rule:nonzero;stroke:none"
           transform="matrix(0.965926,0.258819,0.258819,-0.965926,210.237,451.936)"><tspan
             id="tspan38"
             y="0"
             x="0">F</tspan></text>
<text
           id="text44"
           style="font-variant:normal;font-weight:900;font-size:71.99990845px;font-family:HelveticaNeue;-inkscape-font-specification:HelveticaNeue-CondensedBlack;writing-mode:lr-tb;fill:#176fc1;fill-opacity:1;fill-rule:nonzero;stroke:none"
           transform="matrix(0.999391,0.0348969,0.0348969,-0.999391,250.601,462.018)"><tspan
             id="tspan42"
             y="0"
             x="0">A</tspan></text>
<text
           id="text48"
           style="font-variant:normal;font-weight:900;font-size:72.00022125px;font-family:HelveticaNeue;-inkscape-font-specification:HelveticaNeue-CondensedBlack;writing-mode:lr-tb;fill:#176fc1;fill-opacity:1;fill-rule:nonzero;stroke:none"
           transform="matrix(0.978147,-0.207916,-0.207916,-0.978147,297.893,462.829)"><tspan
             id="tspan46"
             y="0"
             x="0">H</tspan></text>
<text
           id="text52"
           style="font-variant:normal;font-weight:900;font-size:71.99962616px;font-family:HelveticaNeue;-inkscape-font-specification:HelveticaNeue-CondensedBlack;writing-mode:lr-tb;fill:#176fc1;fill-opacity:1;fill-rule:nonzero;stroke:none"
           transform="matrix(0.898794,-0.438372,-0.438372,-0.898794,345.139,451.552)"><tspan
             id="tspan50"
             y="0"
             x="0">R</tspan></text>
<text
           id="text56"
           style="font-variant:normal;font-weight:900;font-size:71.99979401px;font-family:HelveticaNeue;-inkscape-font-specification:HelveticaNeue-CondensedBlack;writing-mode:lr-tb;fill:#176fc1;fill-opacity:1;fill-rule:nonzero;stroke:none"
           transform="matrix(0.766039,-0.642794,-0.642794,-0.766039,388.036,428.852)"><tspan
             id="tspan54"
             y="0"
             x="0">Z</tspan></text>
<text
           id="text60"
           style="font-variant:normal;font-weight:900;font-size:71.99987793px;font-family:HelveticaNeue;-inkscape-font-specification:HelveticaNeue-CondensedBlack;writing-mode:lr-tb;fill:#176fc1;fill-opacity:1;fill-rule:nonzero;stroke:none"
           transform="matrix(0.615662,-0.78801,-0.78801,-0.615662,419.326,401.809)"><tspan
             id="tspan58"
             y="0"
             x="0">E</tspan></text>
<text
           id="text64"
           style="font-variant:normal;font-weight:900;font-size:71.99993896px;font-family:HelveticaNeue;-inkscape-font-specification:HelveticaNeue-CondensedBlack;writing-mode:lr-tb;fill:#176fc1;fill-opacity:1;fill-rule:nonzero;stroke:none"
           transform="matrix(0.406739,-0.913545,-0.913545,-0.406739,445.492,367.292)"><tspan
             id="tspan62"
             y="0"
             x="0">U</tspan></text>
<text
           id="text68"
           style="font-variant:normal;font-weight:900;font-size:72.00011444px;font-family:HelveticaNeue;-inkscape-font-specification:HelveticaNeue-CondensedBlack;writing-mode:lr-tb;fill:#176fc1;fill-opacity:1;fill-rule:nonzero;stroke:none"
           transform="matrix(0.190811,-0.981627,-0.981627,-0.190811,463.688,323.957)"><tspan
             id="tspan66"
             y="0"
             x="0">G</tspan></text>
<text
           id="text72"
           style="font-variant:normal;font-weight:900;font-size:71.99998474px;font-family:HelveticaNeue;-inkscape-font-specification:HelveticaNeue-CondensedBlack;writing-mode:lr-tb;fill:#176fc1;fill-opacity:1;fill-rule:nonzero;stroke:none"
           transform="matrix(0.79863,-0.601822,-0.601822,-0.79863,116.813,93.8676)"><tspan
             id="tspan70"
             y="0"
             x="0">B</tspan></text>
<text
           id="text76"
           style="font-variant:normal;font-weight:900;font-size:71.99993896px;font-family:HelveticaNeue;-inkscape-font-specification:HelveticaNeue-CondensedBlack;writing-mode:lr-tb;fill:#176fc1;fill-opacity:1;fill-rule:nonzero;stroke:none"
           transform="matrix(0.913545,-0.406739,-0.406739,-0.913545,164.292,60.4813)"><tspan
             id="tspan74"
             y="0"
             x="0">E</tspan></text>
<text
           id="text80"
           style="font-variant:normal;font-weight:900;font-size:72.00011444px;font-family:HelveticaNeue;-inkscape-font-specification:HelveticaNeue-CondensedBlack;writing-mode:lr-tb;fill:#176fc1;fill-opacity:1;fill-rule:nonzero;stroke:none"
           transform="matrix(0.981627,-0.190811,-0.190811,-0.981627,213.258,40.9125)"><tspan
             id="tspan78"
             y="0"
             x="0">T</tspan></text>
<text
           id="text84"
           style="font-variant:normal;font-weight:900;font-size:72.00002289px;font-family:HelveticaNeue;-inkscape-font-specification:HelveticaNeue-CondensedBlack;writing-mode:lr-tb;fill:#176fc1;fill-opacity:1;fill-rule:nonzero;stroke:none"
           transform="matrix(0.999848,0.0174561,0.0174561,-0.999848,261.584,32.9188)"><tspan
             id="tspan82"
             y="0"
             x="0">R</tspan></text>
<text
           id="text88"
           style="font-variant:normal;font-weight:900;font-size:72.00022125px;font-family:HelveticaNeue;-inkscape-font-specification:HelveticaNeue-CondensedBlack;writing-mode:lr-tb;fill:#176fc1;fill-opacity:1;fill-rule:nonzero;stroke:none"
           transform="matrix(0.978147,0.207916,0.207916,-0.978147,317.414,36.3934)"><tspan
             id="tspan86"
             y="0"
             x="0">I</tspan></text>
<text
           id="text92"
           style="font-variant:normal;font-weight:900;font-size:71.99997711px;font-family:HelveticaNeue;-inkscape-font-specification:HelveticaNeue-CondensedBlack;writing-mode:lr-tb;fill:#176fc1;fill-opacity:1;fill-rule:nonzero;stroke:none"
           transform="matrix(0.927185,0.374603,0.374603,-0.927185,349.053,43.5922)"><tspan
             id="tspan90"
             y="0"
             x="0">E</tspan></text>
<text
           id="text96"
           style="font-variant:normal;font-weight:900;font-size:72.00017548px;font-family:HelveticaNeue;-inkscape-font-specification:HelveticaNeue-CondensedBlack;writing-mode:lr-tb;fill:#176fc1;fill-opacity:1;fill-rule:nonzero;stroke:none"
           transform="matrix(0.809019,0.587782,0.587782,-0.809019,398.249,65.3328)"><tspan
             id="tspan94"
             y="0"
             x="0">B</tspan></text>
</g><path
         id="path98"
         style="fill:none;stroke:#176fc1;stroke-width:79.99900055;stroke-linecap:butt;stroke-linejoin:miter;stroke-miterlimit:3.8636899;stroke-dasharray:none;stroke-opacity:1"
         d="m 40.9102,2749.03 c 0,1491.73 1209.2498,2700.98 2700.9798,2700.98 1491.74,0 2700.99,-1209.25 2700.99,-2700.98 C 5442.88,1257.29 4233.63,48.043 2741.89,48.043 1250.16,48.043 40.9102,1257.29 40.9102,2749.03 Z" /><path
         id="path100"
         style="fill:#edefee;fill-opacity:1;fill-rule:evenodd;stroke:none"
         d="m 2920.42,2589.47 c 21.57,2.01 41.53,1.89 57.54,-5.57 -21.57,-2.02 -41.53,-1.9 -57.54,5.57" /><path
         id="path102"
         style="fill:#ffffff;fill-opacity:1;fill-rule:nonzero;stroke:none"
         d="m 3978.78,2673.08 c 66,0 74.4,-57.6 74.4,-105.6 0,-167.4 -168.79,-170.96 -289.99,-191.96 -56.4,-9.6 -82.01,-4.84 -94.01,-4.84 -118.2,0 -139.2,44.4 -139.2,144 0,126.6 99.04,119.94 198.92,144 h 143.68 c 12,0 94.2,14.4 106.2,14.4" /><path
         id="path104"
         style="fill:#ffffff;fill-opacity:1;fill-rule:nonzero;stroke:none"
         d="m 1574,2673.08 c 12,0 99,-14.4 111,-14.4 h 147.6 c 97.2,0 190.2,-40.2 190.2,-144 0,-108 -21,-144 -136.8,-144 -12,0 -35.2,-4.76 -91.6,4.84 -142.2,24 -290,20.36 -290,196.76 0,54 9,100.8 69.6,100.8" /><path
         id="path106"
         style="fill:#ffffff;fill-opacity:1;fill-rule:nonzero;stroke:none"
         d="m 2200.39,2433.09 141.66,-4.8 c 4.75,0 11.24,-5.51 13.96,-9.64 0,0 2.78,2.43 3.49,8.93 16.09,0.71 9.5,-8.9 21.49,-8.9 h 790.8 c 12,0 10.2,9.61 14.97,9.61 l 226.16,4.73 c 10.14,-4.99 16.26,-21.54 16.26,-33.54 0,-49.8 -64.35,-29.95 -83.75,-33.58 l -216.23,-4.81 c -4.81,0 -12.01,-2.41 -12.72,-9.25 h -677.89 c -12,-0.36 -10.2,9.25 -15.08,9.25 -174.08,12 -299.91,-7.8 -299.91,40.79 0,37.8 54.6,31.21 76.79,31.21" /><path
         id="path108"
         style="fill:#ffffff;fill-opacity:1;fill-rule:nonzero;stroke:none"
         d="m 3210.19,2601.66 c 12,-0.58 147,9.02 158.99,9.02 19.8,0 55.21,3 55.21,-28.8 0,-39 -41.7,-29.22 -64.29,-38.34 l -216.48,-9.66 -974.82,9.64 c -14.76,4.89 -24.94,14.77 -39.88,25.23 v 32.91 h 1081.27" /><path
         id="path110"
         style="fill:#ffffff;fill-opacity:1;fill-rule:nonzero;stroke:none"
         d="m 1495.01,2167.66 525.57,-60.98 460.66,-14.39 c 4.75,0 2.96,-9.6 14.95,-9.6 h 565.2 c 12,0 10.2,9.6 14.95,9.6 l 479.86,19.19 501.4,56.5 c -24.56,-43.33 -85.34,-73.8 -118.34,-83.39 -90.6,-27 -282.08,-59.5 -489.08,-59.5 h -99.59 c -12,0 -10.2,-9.6 -14.97,-9.6 l -345.6,-9.6 h -422.47 l -350.39,9.6 c -9.56,0 -14.36,9.6 -24,9.6 l -158.62,4.81 c -186.74,31.82 -381.72,-3.02 -539.53,137.76" /><path
         id="path112"
         style="fill:#ffffff;fill-opacity:1;fill-rule:nonzero;stroke:none"
         d="m 2707.18,3921.07 465.83,-14.41 c 96.13,-14.41 196.21,-39.6 295.81,-49.2 320.4,-32.4 478.35,-434.01 584.3,-674.6 l -626.1,66.22 -331.07,9.6 c -4.76,0 -2.96,9.6 -14.96,9.6 h -589.2 c -12,0 -10.2,-9.6 -14.95,-9.6 l -460.66,-19.2 -496.51,-56.62 c 86.74,198.59 159.68,468.46 385.88,607.06 164.99,100.8 380.81,102.94 571.06,121.54 l 230.57,9.61" /></g></g></svg>