<?xml version="1.0" encoding="UTF-8" standalone="no"?>
<!DOCTYPE svg PUBLIC "-//W3C//DTD SVG 1.1//EN" "http://www.w3.org/Graphics/SVG/1.1/DTD/svg11.dtd">
<svg width="100%" height="100%" viewBox="0 0 2426 1116" version="1.1" xmlns="http://www.w3.org/2000/svg" xmlns:xlink="http://www.w3.org/1999/xlink" xml:space="preserve" xmlns:serif="http://www.serif.com/" style="fill-rule:evenodd;clip-rule:evenodd;stroke-miterlimit:10;">
    <g transform="matrix(1,0,0,1,-424.733,-695.626)">
        <g transform="matrix(4.16667,0,0,4.16667,0,0)">
            <g transform="matrix(1,0,0,1,154.473,410.324)">
                <path d="M0,-77.596L201.695,-81.881L193.322,-41.484L193.733,-41.484C196.616,-46.851 198.95,-50.431 201.421,-54.395L218.722,-81.881L237.392,-81.881L209.385,-43.784L219.957,4.285L201.971,4.285L196.067,-32.277L190.025,-24.479L183.985,4.285L167.234,4.285L181.79,-66.527L0,-77.596Z" style="fill:rgb(252,212,30);fill-rule:nonzero;stroke:rgb(27,62,118);stroke-width:4px;"/>
            </g>
        </g>
        <g transform="matrix(4.16667,0,0,4.16667,0,0)">
            <g transform="matrix(1,0,0,1,450.769,343.046)">
                <path d="M0,56.975L0,57.259L26.753,57.259L213.231,71.563L-23.081,71.563L-21.155,61.191L19.351,-0.047L19.351,-0.285L-5.777,-0.285L-36.111,-0.521L-40.927,22.354L-20.734,22.354L-23.473,35.757L-43.545,35.757L-50.947,71.563L-68.251,71.563L-50.526,-14.588L41.438,-14.588L38.851,-1.563L0,56.975Z" style="fill:rgb(252,212,30);fill-rule:nonzero;stroke:rgb(27,62,118);stroke-width:4px;"/>
            </g>
        </g>
        <g transform="matrix(4.16667,0,0,4.16667,0,0)">
            <g transform="matrix(1,0,0,1,213.511,194.466)">
                <path d="M0,69.099C0.571,68.318 1.011,67.77 1.515,67.153C2.001,66.541 2.5,65.975 2.994,65.394C3.991,64.247 4.995,63.128 6.029,62.044C7.059,60.958 8.094,59.88 9.163,58.847C10.212,57.789 11.292,56.771 12.384,55.769C16.74,51.747 21.282,47.974 25.994,44.451C35.421,37.411 45.451,31.293 55.832,25.951C66.22,20.615 76.984,16.098 87.96,12.283C93.427,10.309 99.008,8.694 104.569,7.054L112.98,4.846C114.376,4.456 115.794,4.156 117.208,3.842L121.447,2.898L125.686,1.955C127.103,1.665 128.53,1.425 129.952,1.158L138.486,-0.396L147.066,-1.642C148.496,-1.842 149.922,-2.07 151.355,-2.249L155.662,-2.713L164.27,-3.639L172.901,-4.256C178.648,-4.757 184.417,-4.829 190.173,-5.06C213.213,-5.673 236.237,-4.35 259.054,-1.669C236.155,-3.521 213.147,-4.003 190.279,-2.562C184.568,-2.125 178.849,-1.847 173.167,-1.142L164.638,-0.222L156.151,1.005L151.911,1.618C150.501,1.845 149.099,2.122 147.694,2.372L139.27,3.908L130.912,5.746C129.521,6.06 128.125,6.347 126.74,6.683L122.604,7.763L118.47,8.841C117.092,9.2 115.71,9.545 114.354,9.977L106.181,12.442C100.789,14.25 95.387,16.026 90.119,18.147C79.54,22.262 69.234,27.036 59.377,32.559C49.528,38.088 40.099,44.328 31.363,51.36C26.998,54.877 22.827,58.611 18.882,62.527C17.893,63.503 16.917,64.491 15.981,65.508C15.019,66.506 14.102,67.534 13.193,68.566C12.28,69.593 11.404,70.646 10.555,71.698C10.138,72.226 9.704,72.754 9.318,73.282C8.929,73.789 8.498,74.383 8.235,74.772L0,69.099Z" style="fill:rgb(27,62,118);fill-rule:nonzero;"/>
            </g>
        </g>
        <g transform="matrix(4.16667,0,0,4.16667,0,0)">
            <g transform="matrix(1,0,0,1,489.476,361.882)">
                <path d="M0,-103.659C-11.969,-103.059 -23.93,-102.551 -35.888,-102.089L-53.823,-101.395L-71.755,-100.785L-143.428,-98.305C-167.302,-97.434 -191.164,-96.539 -214.954,-95.158C-226.845,-94.472 -238.719,-93.63 -250.508,-92.5L-254.925,-92.06L-259.317,-91.539C-262.261,-91.236 -265.148,-90.797 -268.049,-90.387C-269.511,-90.202 -270.926,-89.93 -272.348,-89.671C-273.757,-89.395 -275.225,-89.195 -276.588,-88.859L-280.696,-87.877L-284.457,-86.654L-285.104,-86.435C-287.61,-85.815 -290.332,-85.007 -292.93,-84.178C-295.555,-83.34 -298.16,-82.425 -300.75,-81.468C-305.931,-79.561 -311.025,-77.409 -315.968,-74.977C-320.908,-72.544 -325.709,-69.84 -330.236,-66.768C-334.778,-63.726 -339.106,-60.365 -342.923,-56.516C-346.747,-52.683 -350.092,-48.386 -352.613,-43.635C-355.132,-38.896 -356.841,-33.686 -357.365,-28.268C-357.626,-25.564 -357.678,-22.822 -357.486,-20.074C-357.253,-17.33 -356.821,-14.587 -356.18,-11.875C-354.863,-6.458 -352.821,-1.176 -350.338,3.917C-351.867,1.534 -353.34,-0.903 -354.604,-3.458C-355.931,-5.986 -357.018,-8.641 -357.98,-11.351C-358.905,-14.076 -359.627,-16.88 -360.146,-19.743C-360.626,-22.613 -360.859,-25.542 -360.787,-28.484C-360.681,-34.372 -359.268,-40.261 -356.896,-45.705C-354.531,-51.175 -351.074,-56.085 -347.197,-60.515C-343.299,-64.948 -338.886,-68.861 -334.22,-72.377C-329.531,-75.869 -324.58,-78.953 -319.491,-81.746C-314.399,-84.537 -309.161,-87.028 -303.819,-89.268C-301.147,-90.388 -298.437,-91.41 -295.704,-92.387C-292.942,-93.36 -290.267,-94.256 -287.307,-95.09L-287.954,-94.871C-286.389,-95.45 -284.808,-96.046 -283.238,-96.584L-278.648,-97.798C-277.115,-98.207 -275.618,-98.447 -274.099,-98.779C-272.586,-99.09 -271.069,-99.413 -269.568,-99.638C-266.557,-100.134 -263.542,-100.662 -260.541,-101.035L-256.032,-101.632L-251.529,-102.142C-239.523,-103.501 -227.529,-104.386 -215.541,-105.126C-191.562,-106.5 -167.597,-107.192 -143.637,-107.429C-131.657,-107.523 -119.68,-107.576 -107.704,-107.429C-95.729,-107.309 -83.756,-107.206 -71.784,-106.85L-53.831,-106.354L-35.881,-105.652C-23.916,-105.138 -11.954,-104.514 0,-103.659" style="fill:rgb(27,62,118);fill-rule:nonzero;"/>
            </g>
        </g>
        <g transform="matrix(4.16667,0,0,4.16667,0,0)">
            <g transform="matrix(1,0,0,1,225.615,295.26)">
                <path d="M0,15.807C0,15.807 0.025,15.832 0.018,15.816L-0.062,15.696C-0.122,15.613 -0.155,15.538 -0.233,15.445L-0.684,14.876C-1.057,14.504 -1.373,14.097 -1.799,13.736C-2.587,12.975 -3.512,12.293 -4.433,11.598C-5.431,10.987 -6.371,10.283 -7.453,9.754L-9.038,8.901C-9.577,8.633 -10.143,8.405 -10.695,8.152L-12.367,7.409L-14.1,6.78C-15.26,6.365 -16.413,5.916 -17.622,5.61C-18.821,5.281 -20.012,4.905 -21.228,4.608L-24.909,3.812C-26.133,3.513 -27.387,3.363 -28.635,3.161C-29.885,2.974 -31.135,2.764 -32.392,2.594C-34.916,2.371 -37.445,2.052 -39.99,1.904C-42.535,1.808 -45.089,1.63 -47.647,1.601L-55.334,1.622L-47.683,0.727C-45.125,0.463 -42.552,0.35 -39.977,0.154C-37.4,0.011 -34.813,0.039 -32.219,-0.025C-30.923,0.001 -29.626,0.069 -28.326,0.115C-27.026,0.175 -25.72,0.183 -24.422,0.347L-20.512,0.736C-19.21,0.9 -17.914,1.149 -16.608,1.354C-15.299,1.534 -14.011,1.868 -12.713,2.172L-10.765,2.64L-8.838,3.242C-8.196,3.45 -7.546,3.633 -6.908,3.864L-5.004,4.621C-3.719,5.084 -2.496,5.772 -1.239,6.371C-0.018,7.08 1.21,7.791 2.385,8.68C2.984,9.089 3.549,9.621 4.131,10.101C4.73,10.7 5.196,11.076 5.934,12.092L0,15.807Z" style="fill:rgb(27,62,118);fill-rule:nonzero;"/>
            </g>
        </g>
        <g transform="matrix(4.16667,0,0,4.16667,0,0)">
            <g transform="matrix(1,0,0,1,159.877,239.918)">
                <path d="M0,30.572C-0.871,29.442 -1.563,28.194 -2.189,26.906C-2.83,25.62 -3.323,24.263 -3.736,22.86C-4.545,20.057 -4.9,17.001 -4.396,13.816C-3.955,10.645 -2.246,7.374 0.314,5.056C0.919,4.426 1.657,4.008 2.341,3.492C3.046,3.025 3.795,2.678 4.531,2.277C5.275,1.923 6.043,1.69 6.803,1.4C7.566,1.12 8.329,0.991 9.094,0.786C12.151,0.171 15.185,0 18.092,0.255C19.563,0.332 20.989,0.532 22.41,0.778C23.844,0.962 25.214,1.349 26.6,1.673C32.097,3.115 37.3,5.274 42.117,8.239C36.449,8.062 31.042,7.427 25.729,7.108C23.079,6.959 20.457,6.809 17.911,6.891C17.276,6.926 16.632,6.884 16.009,6.934L14.149,7.087C13.52,7.101 12.937,7.225 12.337,7.305C11.741,7.393 11.133,7.459 10.582,7.623C5.908,8.567 2.507,10.813 0.926,15.147C0.118,17.29 -0.256,19.802 -0.342,22.417C-0.453,25.043 -0.284,27.758 0,30.572" style="fill:rgb(27,62,118);fill-rule:nonzero;"/>
            </g>
        </g>
        <g transform="matrix(4.16667,0,0,4.16667,0,0)">
            <g transform="matrix(1,0,0,1,127.332,416.688)">
                <path d="M0,-102.272C-8.162,-92.321 -13.131,-80.798 -15.172,-68.972C-17.203,-57.177 -16.252,-44.997 -11.78,-34.385C-10.65,-31.746 -9.325,-29.199 -7.772,-26.798C-6.208,-24.407 -4.437,-22.158 -2.481,-20.06C-0.493,-18.009 1.669,-16.052 3.98,-14.367C4.538,-13.91 5.168,-13.562 5.76,-13.151C6.355,-12.743 6.962,-12.355 7.598,-12.009C8.227,-11.654 8.84,-11.262 9.485,-10.928L11.444,-9.958C14.101,-8.742 16.875,-7.695 19.766,-6.892C22.662,-6.121 25.643,-5.515 28.691,-5.11C31.742,-4.724 34.845,-4.531 37.995,-4.431C39.564,-4.429 41.152,-4.395 42.737,-4.474C44.337,-4.463 45.92,-4.613 47.542,-4.65C41.583,-2.182 35.168,-0.679 28.555,-0.197C25.248,0 21.894,-0.066 18.535,-0.435C15.178,-0.828 11.833,-1.58 8.557,-2.644C5.279,-3.717 2.125,-5.221 -0.875,-7.006C-3.899,-8.792 -6.584,-10.991 -9.175,-13.34C-11.709,-15.751 -13.951,-18.458 -15.982,-21.309C-17.936,-24.215 -19.593,-27.304 -20.99,-30.498C-22.317,-33.721 -23.341,-37.046 -24.098,-40.418C-24.8,-43.803 -25.218,-47.226 -25.358,-50.648C-25.596,-57.495 -24.702,-64.311 -22.797,-70.778C-21.834,-74.008 -20.607,-77.146 -19.177,-80.168C-17.717,-83.182 -16.001,-86.051 -14.111,-88.773C-12.16,-91.461 -10.021,-93.988 -7.669,-96.271C-6.442,-97.37 -5.272,-98.496 -3.972,-99.483C-2.704,-100.499 -1.348,-101.4 0,-102.272" style="fill:rgb(27,62,118);fill-rule:nonzero;"/>
            </g>
        </g>
        <g transform="matrix(4.16667,0,0,4.16667,0,0)">
            <g transform="matrix(1,0,0,1,130.299,399.603)">
                <path d="M0,-18.077C3.072,-16.111 6.276,-14.641 9.548,-13.405C11.144,-12.719 12.844,-12.264 14.467,-11.692C16.121,-11.186 17.813,-10.791 19.457,-10.31C26.153,-8.663 33.014,-7.895 39.906,-7.517C46.805,-7.026 53.771,-7.37 60.806,-7.573C64.313,-7.836 67.845,-8.084 71.419,-8.25C74.965,-8.597 78.542,-8.893 82.224,-8.955C78.924,-7.422 75.52,-6.124 72.085,-4.875C68.603,-3.834 65.063,-2.919 61.493,-2.111C54.297,-0.855 46.929,0 39.519,-0.53C32.136,-0.94 24.702,-2.285 17.764,-5.093C16.903,-5.464 16.056,-5.863 15.207,-6.249C14.365,-6.656 13.499,-6.981 12.693,-7.47C11.068,-8.405 9.43,-9.27 7.927,-10.39C6.389,-11.431 4.948,-12.625 3.593,-13.882C2.269,-15.181 0.977,-16.514 0,-18.077" style="fill:rgb(27,62,118);fill-rule:nonzero;"/>
            </g>
        </g>
        <g transform="matrix(4.16667,0,0,4.16667,0,0)">
            <g transform="matrix(-0.707107,0.707107,0.707107,0.707107,671.333,177.805)">
                <path d="M-0.805,-0.333L0.138,-0.333" style="fill:none;fill-rule:nonzero;stroke:rgb(230,0,126);stroke-width:2px;"/>
            </g>
        </g>
    </g>
</svg>
